<svg width="309" height="23" viewBox="0 0 309 23" fill="none" xmlns="http://www.w3.org/2000/svg">
<path d="M5.08 22H0.28V0.559999H18.424V4.88H5.08V9.712H17.944V14H5.08V22ZM26.9635 22H21.5875L30.9635 0.559999H37.8115L47.2515 22H41.7475L39.7315 17.264H29.0115L26.9635 22ZM32.8835 8.272L30.8675 12.944H37.8755L35.8595 8.272L34.5475 4.944H34.1955L32.8835 8.272ZM60.6592 22.32C54.1632 22.32 50.5152 19.76 50.5152 14.768V14.576H55.3152V15.152C55.3152 17.136 56.3072 17.936 60.6592 17.936C64.4992 17.936 65.3952 17.36 65.3952 15.92C65.3952 14.608 64.6592 14.128 62.4512 13.744L56.4352 12.88C52.5952 12.272 50.3232 10.352 50.3232 6.864C50.3232 3.632 52.9472 0.24 60.1472 0.24C66.7393 0.24 69.8113 3.28 69.8113 7.792V7.984H64.9792V7.536C64.9792 5.488 63.9232 4.624 59.6672 4.624C56.2112 4.624 55.1552 5.296 55.1552 6.672C55.1552 7.92 55.8592 8.368 57.6512 8.688L63.6672 9.648C68.4672 10.416 70.1952 12.752 70.1952 15.696C70.1952 19.184 67.4753 22.32 60.6592 22.32ZM86.646 22H81.846V4.88H73.878V0.559999H94.614V4.88H86.646V22ZM103.695 22H98.895V0.559999H110.735C116.015 0.559999 119.023 2.896 119.023 6.992C119.023 10.48 117.007 12.56 112.975 12.944V13.2C114.895 13.712 115.631 14.736 116.431 16.24L119.535 22H113.967L111.023 16.432C110.159 14.768 109.359 14.224 106.863 14.224H103.695V22ZM103.695 4.88V10.608H110.703C112.975 10.608 113.999 9.968 113.999 7.728C113.999 5.616 112.975 4.88 110.703 4.88H103.695ZM127.547 22H122.171L131.547 0.559999H138.395L147.835 22H142.331L140.315 17.264H129.595L127.547 22ZM133.467 8.272L131.451 12.944H138.459L136.443 8.272L135.131 4.944H134.779L133.467 8.272ZM162.491 22.32C155.419 22.32 151.035 17.968 151.035 11.28C151.035 4.592 155.419 0.24 162.491 0.24C169.147 0.24 173.435 3.568 173.435 9.008V9.488H168.091V9.008C168.091 6.192 166.491 4.848 162.587 4.848C157.883 4.848 156.123 6.512 156.123 11.28C156.123 16.048 157.883 17.712 162.587 17.712C166.491 17.712 168.091 16.368 168.091 13.552V13.072H173.435V13.552C173.435 18.992 169.179 22.32 162.491 22.32ZM182.875 22H178.075V0.559999H182.875V9.072H188.219L193.915 0.559999H199.675L192.219 11.12L199.579 22H193.819L188.283 13.744H182.875V22ZM209.303 22H203.127V16.4H209.303V22Z" fill="#202020" style="fill:#202020;fill:color(display-p3 0.1255 0.1255 0.1255);fill-opacity:1;"/>
<path d="M225.077 22.32C218.005 22.32 213.621 17.968 213.621 11.28C213.621 4.592 218.005 0.24 225.077 0.24C231.733 0.24 236.021 3.568 236.021 9.008V9.488H230.677V9.008C230.677 6.192 229.077 4.848 225.173 4.848C220.469 4.848 218.709 6.512 218.709 11.28C218.709 16.048 220.469 17.712 225.173 17.712C229.077 17.712 230.677 16.368 230.677 13.552V13.072H236.021V13.552C236.021 18.992 231.765 22.32 225.077 22.32ZM258.229 22H240.661V0.559999H245.461V17.68H258.229V22ZM273.089 22.32C266.113 22.32 262.561 18.8 262.561 13.04V0.559999H267.361V12.688C267.361 16.336 268.737 17.648 273.089 17.648C277.473 17.648 278.817 16.336 278.817 12.688V0.559999H283.617V13.04C283.617 18.8 280.097 22.32 273.089 22.32ZM301.97 22H288.498V0.559999H301.362C305.746 0.559999 308.114 2.416 308.114 5.776C308.114 8.432 306.706 10.352 303.122 10.608V10.896C307.09 11.184 309.01 13.168 309.01 16.048C309.01 19.696 306.77 22 301.97 22ZM293.298 4.88V9.072H300.818C302.578 9.072 303.314 8.464 303.314 6.992C303.314 5.52 302.546 4.88 300.754 4.88H293.298ZM293.298 13.04V17.68H301.394C303.346 17.68 304.146 17.072 304.146 15.344C304.146 13.648 303.346 13.04 301.394 13.04H293.298Z" fill="#2BD480" style="fill:#2BD480;fill:color(display-p3 0.1686 0.8314 0.5020);fill-opacity:1;"/>
</svg>
