<svg width="931" height="373" viewBox="0 0 931 373" fill="none" xmlns="http://www.w3.org/2000/svg">
<path d="M340.611 30.248H331.875L329.411 37H326.467L334.915 14.952H337.635L346.115 37H343.107L340.611 30.248ZM339.811 28.04L336.259 18.376L332.707 28.04H339.811ZM354.286 37.576C353.006 37.576 351.886 37.4373 350.926 37.16C349.966 36.8827 349.07 36.4773 348.238 35.944L349.102 33.864C350.532 34.8667 352.26 35.368 354.286 35.368C355.396 35.368 356.292 35.112 356.974 34.6C357.678 34.088 358.03 33.3627 358.03 32.424C358.03 31.8907 357.86 31.4427 357.518 31.08C357.177 30.696 356.75 30.3867 356.238 30.152C355.748 29.896 355.044 29.5973 354.126 29.256C352.996 28.8507 352.078 28.4773 351.374 28.136C350.67 27.7733 350.073 27.2827 349.582 26.664C349.092 26.024 348.846 25.2133 348.846 24.232C348.846 22.6533 349.401 21.448 350.51 20.616C351.641 19.7627 353.092 19.336 354.862 19.336C356.91 19.336 358.724 19.8587 360.302 20.904L359.47 22.984C358.105 22.024 356.59 21.544 354.926 21.544C353.945 21.544 353.156 21.7467 352.558 22.152C351.961 22.5573 351.662 23.176 351.662 24.008C351.662 24.776 351.982 25.3733 352.622 25.8C353.262 26.2267 354.233 26.664 355.534 27.112C356.665 27.5173 357.582 27.9013 358.286 28.264C358.99 28.6267 359.588 29.1387 360.078 29.8C360.59 30.4613 360.846 31.304 360.846 32.328C360.846 33.928 360.249 35.208 359.054 36.168C357.86 37.1067 356.27 37.576 354.286 37.576ZM369.911 37.576C368.631 37.576 367.511 37.4373 366.551 37.16C365.591 36.8827 364.695 36.4773 363.863 35.944L364.727 33.864C366.157 34.8667 367.885 35.368 369.911 35.368C371.021 35.368 371.917 35.112 372.599 34.6C373.303 34.088 373.655 33.3627 373.655 32.424C373.655 31.8907 373.485 31.4427 373.143 31.08C372.802 30.696 372.375 30.3867 371.863 30.152C371.373 29.896 370.669 29.5973 369.751 29.256C368.621 28.8507 367.703 28.4773 366.999 28.136C366.295 27.7733 365.698 27.2827 365.207 26.664C364.717 26.024 364.471 25.2133 364.471 24.232C364.471 22.6533 365.026 21.448 366.135 20.616C367.266 19.7627 368.717 19.336 370.487 19.336C372.535 19.336 374.349 19.8587 375.927 20.904L375.095 22.984C373.73 22.024 372.215 21.544 370.551 21.544C369.57 21.544 368.781 21.7467 368.183 22.152C367.586 22.5573 367.287 23.176 367.287 24.008C367.287 24.776 367.607 25.3733 368.247 25.8C368.887 26.2267 369.858 26.664 371.159 27.112C372.29 27.5173 373.207 27.9013 373.911 28.264C374.615 28.6267 375.213 29.1387 375.703 29.8C376.215 30.4613 376.471 31.304 376.471 32.328C376.471 33.928 375.874 35.208 374.679 36.168C373.485 37.1067 371.895 37.576 369.911 37.576ZM387.712 37.576C385.92 37.576 384.406 37.1707 383.168 36.36C381.931 35.5493 381.003 34.4613 380.384 33.096C379.787 31.7093 379.488 30.1733 379.488 28.488C379.488 26.7813 379.787 25.2347 380.384 23.848C381.003 22.4613 381.931 21.3627 383.168 20.552C384.406 19.7413 385.92 19.336 387.712 19.336C389.483 19.336 390.987 19.752 392.224 20.584C393.462 21.416 394.379 22.5253 394.976 23.912C395.595 25.2773 395.904 26.7813 395.904 28.424C395.904 30.088 395.595 31.6133 394.976 33C394.379 34.3867 393.462 35.496 392.224 36.328C390.987 37.16 389.483 37.576 387.712 37.576ZM387.68 35.368C389.387 35.368 390.699 34.7493 391.616 33.512C392.534 32.2533 392.992 30.568 392.992 28.456C392.992 26.3653 392.534 24.6907 391.616 23.432C390.699 22.1733 389.387 21.544 387.68 21.544C385.974 21.544 384.662 22.1733 383.744 23.432C382.848 24.6907 382.4 26.3653 382.4 28.456C382.4 30.568 382.848 32.2533 383.744 33.512C384.662 34.7493 385.974 35.368 387.68 35.368ZM407.15 37.576C405.358 37.576 403.843 37.1707 402.606 36.36C401.369 35.528 400.441 34.4293 399.822 33.064C399.225 31.6987 398.926 30.1733 398.926 28.488C398.926 26.824 399.235 25.2987 399.854 23.912C400.494 22.5253 401.454 21.416 402.734 20.584C404.014 19.752 405.603 19.336 407.502 19.336C408.547 19.336 409.55 19.5173 410.51 19.88C411.47 20.2213 412.259 20.712 412.878 21.352L411.822 23.368C411.289 22.8133 410.638 22.376 409.87 22.056C409.102 21.7147 408.313 21.544 407.502 21.544C405.71 21.544 404.313 22.184 403.31 23.464C402.329 24.7227 401.838 26.3867 401.838 28.456C401.838 30.5467 402.297 32.2213 403.214 33.48C404.153 34.7387 405.465 35.368 407.15 35.368C408.195 35.368 409.123 35.1547 409.934 34.728C410.745 34.28 411.513 33.672 412.238 32.904L413.326 34.728C412.601 35.56 411.705 36.2427 410.638 36.776C409.593 37.3093 408.43 37.576 407.15 37.576ZM418.749 14.632C418.258 14.632 417.831 14.4613 417.469 14.12C417.106 13.7573 416.925 13.3307 416.925 12.84C416.925 12.328 417.106 11.8907 417.469 11.528C417.831 11.1653 418.258 10.984 418.749 10.984C419.261 10.984 419.698 11.1653 420.061 11.528C420.423 11.8907 420.605 12.328 420.605 12.84C420.605 13.3307 420.423 13.7573 420.061 14.12C419.698 14.4613 419.261 14.632 418.749 14.632ZM417.341 19.912H420.189V37H417.341V19.912ZM440.574 36.968C439.806 37.2453 439.038 37.3947 438.27 37.416C437.417 37.416 436.713 37.2453 436.158 36.904C435.625 36.5627 435.294 35.9653 435.166 35.112C433.139 36.6693 431.262 37.448 429.534 37.448C428.19 37.448 427.091 37.064 426.238 36.296C425.385 35.5067 424.958 34.5253 424.958 33.352C424.958 32.264 425.257 31.368 425.854 30.664C426.451 29.9387 427.283 29.3413 428.35 28.872C429.438 28.4027 430.899 27.9013 432.734 27.368L435.102 26.696V25.448C435.102 22.888 434.131 21.608 432.19 21.608C431.123 21.608 430.142 21.832 429.246 22.28C428.35 22.7067 427.337 23.5173 426.206 24.712L425.022 22.92C427.411 20.5307 429.982 19.336 432.734 19.336C434.569 19.336 435.891 19.816 436.702 20.776C437.534 21.736 437.95 23.336 437.95 25.576V33.928C437.95 34.3973 438.035 34.7387 438.206 34.952C438.377 35.144 438.643 35.24 439.006 35.24C439.326 35.24 439.785 35.1333 440.382 34.92L440.574 36.968ZM427.806 33.128C427.806 33.8533 428.019 34.3867 428.446 34.728C428.873 35.0693 429.438 35.24 430.142 35.24C430.867 35.24 431.614 35.0587 432.382 34.696C433.171 34.3333 434.078 33.7787 435.102 33.032V28.584L433.278 29.128C431.251 29.7467 429.833 30.344 429.022 30.92C428.211 31.496 427.806 32.232 427.806 33.128ZM453.78 36.36C452.671 37.064 451.476 37.416 450.196 37.416C448.361 37.416 447.007 36.9253 446.132 35.944C445.257 34.9413 444.82 33.512 444.82 31.656V22.056H442.1V20.84L445.076 20.008L445.94 15.88H447.668V19.912H452.788V22.056H447.668V31.208C447.668 32.5947 447.892 33.608 448.34 34.248C448.788 34.8667 449.513 35.176 450.516 35.176C451.007 35.1547 451.455 35.08 451.86 34.952C452.287 34.824 452.756 34.6213 453.268 34.344L453.78 36.36ZM464.587 35.368C465.654 35.368 466.614 35.1333 467.467 34.664C468.321 34.1947 469.142 33.5547 469.931 32.744L471.019 34.536C470.166 35.496 469.206 36.2427 468.139 36.776C467.094 37.3093 465.899 37.576 464.555 37.576C462.763 37.576 461.249 37.1707 460.011 36.36C458.795 35.528 457.878 34.4293 457.259 33.064C456.662 31.6773 456.363 30.152 456.363 28.488C456.363 26.7813 456.662 25.2347 457.259 23.848C457.878 22.4613 458.806 21.3627 460.043 20.552C461.281 19.7413 462.785 19.336 464.555 19.336C465.793 19.336 466.902 19.592 467.883 20.104C468.886 20.5947 469.665 21.32 470.219 22.28C470.774 23.24 471.051 24.3707 471.051 25.672C471.051 26.1627 470.977 26.8027 470.827 27.592H459.275C459.254 27.784 459.243 28.0613 459.243 28.424C459.243 30.536 459.691 32.2213 460.587 33.48C461.505 34.7387 462.838 35.368 464.587 35.368ZM464.459 21.448C463.201 21.448 462.155 21.8107 461.323 22.536C460.513 23.2613 459.937 24.2533 459.595 25.512H468.235V25.256C468.235 24.0187 467.862 23.08 467.115 22.44C466.39 21.7787 465.505 21.448 464.459 21.448ZM488.929 11.4V37H486.721L486.401 35.56C484.843 36.904 483.126 37.576 481.249 37.576C479.862 37.576 478.625 37.2347 477.537 36.552C476.47 35.848 475.638 34.8347 475.041 33.512C474.443 32.1893 474.145 30.6 474.145 28.744C474.145 25.6293 474.934 23.2827 476.513 21.704C478.113 20.1253 480.235 19.336 482.881 19.336C484.075 19.336 485.142 19.5173 486.081 19.88V11.4H488.929ZM477.057 28.744C477.057 31.048 477.473 32.7227 478.305 33.768C479.158 34.8133 480.203 35.336 481.441 35.336C482.337 35.336 483.126 35.1973 483.809 34.92C484.491 34.6427 485.249 34.1947 486.081 33.576V22.088C485.185 21.7253 484.161 21.544 483.009 21.544C481.003 21.544 479.51 22.1947 478.529 23.496C477.547 24.776 477.057 26.5253 477.057 28.744ZM513.97 25.512C515.485 25.832 516.637 26.4827 517.426 27.464C518.237 28.424 518.642 29.5973 518.642 30.984C518.642 32.8187 517.959 34.28 516.594 35.368C515.25 36.456 513.309 37 510.77 37H503.474V15.24H510.77C513.01 15.24 514.717 15.7307 515.89 16.712C517.085 17.672 517.682 19.0267 517.682 20.776C517.682 21.9067 517.362 22.8987 516.722 23.752C516.082 24.6053 515.165 25.192 513.97 25.512ZM506.418 17.448V24.456H510.77C512.029 24.456 512.999 24.1467 513.682 23.528C514.386 22.9093 514.738 22.056 514.738 20.968C514.738 19.7947 514.397 18.92 513.714 18.344C513.031 17.7467 512.05 17.448 510.77 17.448H506.418ZM510.77 34.792C512.349 34.792 513.565 34.44 514.418 33.736C515.271 33.0107 515.698 32.008 515.698 30.728C515.698 29.3627 515.271 28.3493 514.418 27.688C513.586 27.0053 512.37 26.664 510.77 26.664H506.418V34.792H510.77ZM532.076 22.024C531.052 22.024 530.071 22.2053 529.132 22.568C528.215 22.9093 527.18 23.5493 526.028 24.488V37H523.18V19.912H525.388L525.9 22.216C526.945 21.1707 527.959 20.4347 528.94 20.008C529.943 19.5813 530.988 19.368 532.076 19.368V22.024ZM550.168 36.968C549.4 37.2453 548.632 37.3947 547.864 37.416C547.01 37.416 546.306 37.2453 545.752 36.904C545.218 36.5627 544.888 35.9653 544.76 35.112C542.733 36.6693 540.856 37.448 539.128 37.448C537.784 37.448 536.685 37.064 535.832 36.296C534.978 35.5067 534.552 34.5253 534.552 33.352C534.552 32.264 534.85 31.368 535.448 30.664C536.045 29.9387 536.877 29.3413 537.944 28.872C539.032 28.4027 540.493 27.9013 542.328 27.368L544.696 26.696V25.448C544.696 22.888 543.725 21.608 541.784 21.608C540.717 21.608 539.736 21.832 538.84 22.28C537.944 22.7067 536.93 23.5173 535.8 24.712L534.616 22.92C537.005 20.5307 539.576 19.336 542.328 19.336C544.162 19.336 545.485 19.816 546.296 20.776C547.128 21.736 547.544 23.336 547.544 25.576V33.928C547.544 34.3973 547.629 34.7387 547.8 34.952C547.97 35.144 548.237 35.24 548.6 35.24C548.92 35.24 549.378 35.1333 549.976 34.92L550.168 36.968ZM537.4 33.128C537.4 33.8533 537.613 34.3867 538.04 34.728C538.466 35.0693 539.032 35.24 539.736 35.24C540.461 35.24 541.208 35.0587 541.976 34.696C542.765 34.3333 543.672 33.7787 544.696 33.032V28.584L542.872 29.128C540.845 29.7467 539.426 30.344 538.616 30.92C537.805 31.496 537.4 32.232 537.4 33.128ZM562.414 19.336C564.291 19.336 565.582 19.8373 566.286 20.84C567.011 21.8213 567.374 23.24 567.374 25.096V37H564.526V25.352C564.526 24.008 564.312 23.048 563.886 22.472C563.459 21.896 562.723 21.608 561.678 21.608C560.888 21.608 560.088 21.7893 559.278 22.152C558.467 22.5147 557.582 23.0693 556.622 23.816V37H553.774V19.912H555.982L556.398 21.704C558.467 20.1253 560.472 19.336 562.414 19.336ZM586.522 11.4V37H584.314L583.994 35.56C582.437 36.904 580.72 37.576 578.842 37.576C577.456 37.576 576.218 37.2347 575.13 36.552C574.064 35.848 573.232 34.8347 572.634 33.512C572.037 32.1893 571.738 30.6 571.738 28.744C571.738 25.6293 572.528 23.2827 574.106 21.704C575.706 20.1253 577.829 19.336 580.474 19.336C581.669 19.336 582.736 19.5173 583.674 19.88V11.4H586.522ZM574.65 28.744C574.65 31.048 575.066 32.7227 575.898 33.768C576.752 34.8133 577.797 35.336 579.034 35.336C579.93 35.336 580.72 35.1973 581.402 34.92C582.085 34.6427 582.842 34.1947 583.674 33.576V22.088C582.778 21.7253 581.754 21.544 580.602 21.544C578.597 21.544 577.104 22.1947 576.122 23.496C575.141 24.776 574.65 26.5253 574.65 28.744ZM597.068 37.576C595.788 37.576 594.668 37.4373 593.708 37.16C592.748 36.8827 591.852 36.4773 591.02 35.944L591.884 33.864C593.313 34.8667 595.041 35.368 597.068 35.368C598.177 35.368 599.073 35.112 599.756 34.6C600.46 34.088 600.812 33.3627 600.812 32.424C600.812 31.8907 600.641 31.4427 600.3 31.08C599.958 30.696 599.532 30.3867 599.02 30.152C598.529 29.896 597.825 29.5973 596.908 29.256C595.777 28.8507 594.86 28.4773 594.156 28.136C593.452 27.7733 592.854 27.2827 592.364 26.664C591.873 26.024 591.628 25.2133 591.628 24.232C591.628 22.6533 592.182 21.448 593.292 20.616C594.422 19.7627 595.873 19.336 597.644 19.336C599.692 19.336 601.505 19.8587 603.084 20.904L602.252 22.984C600.886 22.024 599.372 21.544 597.708 21.544C596.726 21.544 595.937 21.7467 595.34 22.152C594.742 22.5573 594.444 23.176 594.444 24.008C594.444 24.776 594.764 25.3733 595.404 25.8C596.044 26.2267 597.014 26.664 598.316 27.112C599.446 27.5173 600.364 27.9013 601.068 28.264C601.772 28.6267 602.369 29.1387 602.86 29.8C603.372 30.4613 603.628 31.304 603.628 32.328C603.628 33.928 603.03 35.208 601.836 36.168C600.641 37.1067 599.052 37.576 597.068 37.576Z" fill="#717587" style="fill:#717587;fill:color(display-p3 0.4431 0.4588 0.5294);fill-opacity:1;"/>
<rect width="97" height="73" transform="translate(0 90)" fill="#D9D9D9" style="fill:#D9D9D9;fill:color(display-p3 0.8510 0.8510 0.8510);fill-opacity:1;"/>
<rect width="97" height="73" transform="translate(139 90)" fill="#D9D9D9" style="fill:#D9D9D9;fill:color(display-p3 0.8510 0.8510 0.8510);fill-opacity:1;"/>
<rect width="97" height="73" transform="translate(278 90)" fill="#D9D9D9" style="fill:#D9D9D9;fill:color(display-p3 0.8510 0.8510 0.8510);fill-opacity:1;"/>
<rect width="97" height="73" transform="translate(417 90)" fill="#D9D9D9" style="fill:#D9D9D9;fill:color(display-p3 0.8510 0.8510 0.8510);fill-opacity:1;"/>
<rect width="97" height="73" transform="translate(556 90)" fill="#D9D9D9" style="fill:#D9D9D9;fill:color(display-p3 0.8510 0.8510 0.8510);fill-opacity:1;"/>
<rect width="97" height="73" transform="translate(695 90)" fill="#D9D9D9" style="fill:#D9D9D9;fill:color(display-p3 0.8510 0.8510 0.8510);fill-opacity:1;"/>
<rect width="97" height="73" transform="translate(834 90)" fill="#D9D9D9" style="fill:#D9D9D9;fill:color(display-p3 0.8510 0.8510 0.8510);fill-opacity:1;"/>
<rect width="97" height="73" transform="translate(139 195)" fill="#D9D9D9" style="fill:#D9D9D9;fill:color(display-p3 0.8510 0.8510 0.8510);fill-opacity:1;"/>
<rect width="97" height="73" transform="translate(278 195)" fill="#D9D9D9" style="fill:#D9D9D9;fill:color(display-p3 0.8510 0.8510 0.8510);fill-opacity:1;"/>
<rect width="97" height="73" transform="translate(417 195)" fill="#D9D9D9" style="fill:#D9D9D9;fill:color(display-p3 0.8510 0.8510 0.8510);fill-opacity:1;"/>
<rect width="97" height="73" transform="translate(556 195)" fill="#D9D9D9" style="fill:#D9D9D9;fill:color(display-p3 0.8510 0.8510 0.8510);fill-opacity:1;"/>
<rect width="97" height="73" transform="translate(695 195)" fill="#D9D9D9" style="fill:#D9D9D9;fill:color(display-p3 0.8510 0.8510 0.8510);fill-opacity:1;"/>
<rect width="97" height="73" transform="translate(0 300)" fill="#D9D9D9" style="fill:#D9D9D9;fill:color(display-p3 0.8510 0.8510 0.8510);fill-opacity:1;"/>
<rect width="97" height="73" transform="translate(139 300)" fill="#D9D9D9" style="fill:#D9D9D9;fill:color(display-p3 0.8510 0.8510 0.8510);fill-opacity:1;"/>
<rect width="97" height="73" transform="translate(278 300)" fill="#D9D9D9" style="fill:#D9D9D9;fill:color(display-p3 0.8510 0.8510 0.8510);fill-opacity:1;"/>
<rect width="97" height="73" transform="translate(417 300)" fill="#D9D9D9" style="fill:#D9D9D9;fill:color(display-p3 0.8510 0.8510 0.8510);fill-opacity:1;"/>
<rect width="97" height="73" transform="translate(556 300)" fill="#D9D9D9" style="fill:#D9D9D9;fill:color(display-p3 0.8510 0.8510 0.8510);fill-opacity:1;"/>
<rect width="97" height="73" transform="translate(695 300)" fill="#D9D9D9" style="fill:#D9D9D9;fill:color(display-p3 0.8510 0.8510 0.8510);fill-opacity:1;"/>
<rect width="97" height="73" transform="translate(834 300)" fill="#D9D9D9" style="fill:#D9D9D9;fill:color(display-p3 0.8510 0.8510 0.8510);fill-opacity:1;"/>
</svg>
