<svg width="240" height="30" viewBox="0 0 240 30" fill="none" xmlns="http://www.w3.org/2000/svg">
<path d="M5.232 23H0.72V6.92H15.096V10.976H5.232V13.376H14.736V17.408H5.232V23ZM22.3065 23H17.2425L24.1785 6.92H30.6345L37.5945 23H32.4105L31.1865 20.024H23.5545L22.3065 23ZM26.1945 13.712L25.2585 15.968H29.5305L28.5945 13.712L27.5385 11H27.2265L26.1945 13.712ZM47.7975 23.24C42.8775 23.24 39.8775 21.488 39.8775 17.408V17.264H44.3895V17.768C44.3895 18.848 44.7735 19.136 47.7975 19.136C50.5335 19.136 50.8215 18.92 50.8215 18.2C50.8215 17.624 50.5095 17.384 49.1895 17.216L44.1495 16.544C41.1495 16.136 39.6375 14.528 39.6375 11.936C39.6375 9.368 41.6295 6.68 47.4375 6.68C52.5495 6.68 54.9975 8.912 54.9975 12.512V12.656H50.4855V12.296C50.4855 11.144 49.9815 10.76 46.9575 10.76C44.6535 10.76 44.1495 11.072 44.1495 11.768C44.1495 12.272 44.4375 12.512 45.3015 12.632L50.3415 13.376C54.2775 13.952 55.3335 15.968 55.3335 18.032C55.3335 20.792 53.2215 23.24 47.7975 23.24ZM68.1637 23H63.6517V10.976H57.9637V6.92H73.8277V10.976H68.1637V23ZM81.3495 23H76.8375V6.92H86.2215C90.4695 6.92 92.7015 8.696 92.7015 11.84C92.7015 14.384 91.4295 15.896 88.3575 16.28V16.52C90.0135 16.952 90.5415 17.744 91.1415 18.968L93.1335 23H87.9255L86.0055 19.064C85.4295 17.864 84.9495 17.528 83.1975 17.528H81.3495V23ZM81.3495 10.976V14.168H86.1735C87.4935 14.168 87.9735 13.928 87.9735 12.56C87.9735 11.288 87.4935 10.976 86.1735 10.976H81.3495ZM99.8771 23H94.8131L101.749 6.92H108.205L115.165 23H109.981L108.757 20.024H101.125L99.8771 23ZM103.765 13.712L102.829 15.968H107.101L106.165 13.712L105.109 11H104.797L103.765 13.712ZM126.208 23.24C120.616 23.24 117.328 19.976 117.328 14.96C117.328 9.944 120.616 6.68 126.208 6.68C131.608 6.68 134.848 9.248 134.848 13.544V13.952H129.808V13.544C129.808 11.72 128.944 11 126.28 11C123.016 11 122.128 11.768 122.128 14.96C122.128 18.152 123.016 18.92 126.28 18.92C128.944 18.92 129.808 18.2 129.808 16.376V15.968H134.848V16.376C134.848 20.672 131.608 23.24 126.208 23.24ZM142.469 23H137.957V6.92H142.469V12.896H145.709L149.621 6.92H155.021L149.453 14.816L154.901 23H149.501L145.757 17.288H142.469V23ZM163.288 23H157.432V18.392H163.288V23Z" fill="white" style="fill:white;fill-opacity:1;"/>
<path d="M175.281 23.24C169.689 23.24 166.401 19.976 166.401 14.96C166.401 9.944 169.689 6.68 175.281 6.68C180.681 6.68 183.921 9.248 183.921 13.544V13.952H178.881V13.544C178.881 11.72 178.017 11 175.353 11C172.089 11 171.201 11.768 171.201 14.96C171.201 18.152 172.089 18.92 175.353 18.92C178.017 18.92 178.881 18.2 178.881 16.376V15.968H183.921V16.376C183.921 20.672 180.681 23.24 175.281 23.24ZM200.829 23H187.029V6.92H191.541V18.944H200.829V23ZM212.061 23.24C206.445 23.24 203.853 20.528 203.853 16.256V6.92H208.365V15.896C208.365 18.176 209.013 18.872 212.061 18.872C215.109 18.872 215.757 18.176 215.757 15.896V6.92H220.269V16.256C220.269 20.528 217.677 23.24 212.061 23.24ZM234.317 23H223.541V6.92H233.765C237.245 6.92 238.973 8.288 238.973 10.808C238.973 12.872 237.893 14.336 234.965 14.456V14.696C238.181 14.816 239.717 16.304 239.717 18.536C239.717 21.248 238.157 23 234.317 23ZM228.029 10.976V13.016H233.285C234.197 13.016 234.461 12.752 234.461 12.008C234.461 11.264 234.101 10.976 233.165 10.976H228.029ZM228.029 16.712V18.944H233.741C234.821 18.944 235.157 18.728 235.157 17.816C235.157 16.928 234.845 16.712 233.741 16.712H228.029Z" fill="#00CC66" style="fill:#00CC66;fill:color(display-p3 0.0000 0.8000 0.4000);fill-opacity:1;"/>
</svg>
